<?xml version="1.0" encoding="utf-8"?>
<svg viewBox="142.857 229.66 1097.143 434.286" width="128px" height="100px" xmlns="http://www.w3.org/2000/svg">
  <path d="M 215.186 274.132 C 216.32 274.129 217.454 274.127 218.622 274.125 C 222.419 274.118 226.216 274.119 230.013 274.12 C 232.736 274.118 235.46 274.114 238.184 274.11 C 244.812 274.102 251.441 274.099 258.069 274.098 C 263.459 274.098 268.849 274.096 274.238 274.093 C 289.53 274.084 304.822 274.079 320.114 274.08 C 321.35 274.08 321.35 274.08 322.61 274.08 C 323.435 274.08 324.26 274.08 325.11 274.08 C 338.475 274.081 351.841 274.071 365.206 274.057 C 378.941 274.043 392.675 274.036 406.41 274.037 C 414.116 274.037 421.823 274.034 429.529 274.023 C 436.091 274.014 442.652 274.012 449.214 274.019 C 452.559 274.022 455.904 274.021 459.249 274.014 C 462.882 274.006 466.515 274.01 470.148 274.018 C 471.196 274.013 472.243 274.008 473.323 274.003 C 486.14 274.062 495.971 276.49 505.545 285.328 C 516.184 296.526 517.019 308.536 516.971 323.211 C 516.971 324.373 516.971 325.535 516.971 326.732 C 516.97 330.547 516.963 334.361 516.955 338.176 C 516.953 340.831 516.951 343.486 516.951 346.141 C 516.947 352.399 516.939 358.656 516.929 364.914 C 516.918 372.044 516.912 379.173 516.907 386.302 C 516.897 400.957 516.879 415.611 516.857 430.265 C 508.478 425.31 501.278 418.789 493.897 412.483 C 489.503 408.754 484.973 405.236 480.381 401.754 C 477.445 399.518 474.604 397.23 471.857 394.765 C 459.232 383.525 447.437 374.293 429.857 375.265 C 418.386 376.934 409.457 387.221 401.857 395.265 C 397.081 393.817 394.138 390.935 390.67 387.515 C 381.74 379.038 372.55 374.203 360.857 370.265 C 360.121 370.017 359.385 369.768 358.627 369.511 C 342.535 365.061 326.665 369.151 312.39 376.856 C 301.651 383.032 293.797 391.371 287.857 402.265 C 287.46 402.952 287.063 403.64 286.654 404.347 C 281.849 413.151 280.291 422.587 280.357 432.515 C 280.362 433.515 280.367 434.515 280.372 435.546 C 280.577 444.315 282.243 451.275 285.857 459.265 C 286.21 460.175 286.564 461.086 286.927 462.023 C 290.491 469.928 296.758 475.531 302.94 481.429 C 303.671 482.126 304.401 482.824 305.154 483.543 C 306.149 484.475 306.149 484.475 307.165 485.425 C 308.869 487.279 309.858 488.967 310.857 491.265 C 309.977 492.088 309.096 492.91 308.189 493.758 C 301.611 500.03 296.082 505.58 292.857 514.265 C 292.207 515.719 292.207 515.719 291.545 517.203 C 289.405 526.733 290.961 534.827 295.857 543.265 C 297.675 545.439 299.584 547.307 301.685 549.207 C 304.167 551.559 306.229 554.09 308.357 556.765 C 311.682 560.907 315.158 564.68 318.963 568.379 C 321.447 570.853 323.723 573.476 326.009 576.133 C 328.094 578.539 330.222 580.903 332.357 583.265 C 349.857 602.697 349.857 602.697 349.857 605.265 C 330.212 605.359 310.566 605.429 290.92 605.473 C 281.798 605.493 272.675 605.521 263.553 605.567 C 255.599 605.607 247.645 605.633 239.691 605.642 C 235.482 605.647 231.273 605.659 227.064 605.688 C 223.096 605.716 219.129 605.724 215.161 605.718 C 213.711 605.719 212.261 605.727 210.81 605.742 C 196.432 605.888 187.181 602.326 176.881 592.351 C 166.991 581.788 166.701 570.317 166.723 556.501 C 166.721 555.463 166.719 554.426 166.717 553.357 C 166.71 549.906 166.711 546.455 166.712 543.004 C 166.709 540.52 166.705 538.035 166.702 535.551 C 166.694 529.518 166.691 523.484 166.69 517.451 C 166.69 512.544 166.688 507.637 166.684 502.73 C 166.676 488.794 166.671 474.858 166.672 460.922 C 166.672 460.172 166.672 459.422 166.672 458.65 C 166.672 457.899 166.672 457.148 166.672 456.374 C 166.672 444.207 166.663 432.039 166.649 419.871 C 166.634 407.355 166.627 394.839 166.628 382.322 C 166.629 375.304 166.626 368.286 166.615 361.268 C 166.605 354.667 166.605 348.067 166.613 341.466 C 166.614 339.049 166.611 336.632 166.605 334.215 C 166.598 330.904 166.602 327.594 166.61 324.284 C 166.605 323.337 166.6 322.391 166.594 321.416 C 166.664 307.735 168.906 296.295 178.357 286.015 C 189.195 275.728 200.971 274.111 215.186 274.132 Z" fill="#C89B96" transform="matrix(1, 0, 0, 1, -2.842170943040401e-14, 5.684341886080802e-14)"/>
  <path d="M 359.857 403.265 C 362.564 405.407 365.066 407.661 367.552 410.054 C 369.443 411.869 371.331 413.446 373.42 415.015 C 375.857 417.265 375.857 417.265 376.802 419.579 C 376.857 422.265 376.857 422.265 374.97 424.817 C 374.046 425.704 373.122 426.59 372.17 427.504 C 371.674 427.988 371.179 428.473 370.669 428.972 C 369.078 430.522 367.469 432.05 365.857 433.578 C 363.769 435.59 361.688 437.609 359.607 439.629 C 358.847 440.362 358.847 440.362 358.072 441.11 C 354.656 444.423 351.478 447.86 348.4 451.485 C 345.884 454.389 343.157 457.072 340.42 459.765 C 339.879 460.302 339.338 460.838 338.781 461.39 C 337.475 462.684 336.167 463.975 334.857 465.265 C 326.2 462.681 317.987 452.996 313.545 445.39 C 310.411 437.907 310.434 429.43 313.037 421.812 C 317.652 412.105 324.693 405.131 334.748 401.109 C 342.73 398.943 352.54 399.097 359.857 403.265 Z" fill="#C89B96" transform="matrix(1, 0, 0, 1, -2.842170943040401e-14, 5.684341886080802e-14)"/>
  <path d="M 231.857 316.265 C 234.668 318.167 236.242 320.311 237.857 323.265 C 238.414 324.219 238.414 324.219 238.982 325.191 C 240.616 329.064 240.299 333.145 239.857 337.265 C 238.401 340.524 236.602 342.978 233.857 345.265 C 228.761 346.964 222.864 347.277 217.72 345.547 C 213.868 343.474 210.938 341.095 208.857 337.265 C 207.977 332.833 207.949 329.006 210.068 324.945 C 216.034 316.738 221.635 314.462 231.857 316.265 Z" fill="#FDFDFD" transform="matrix(1, 0, 0, 1, -2.842170943040401e-14, 5.684341886080802e-14)"/>
  <text style="fill: color(a98-rgb 0.7339 0.6022 0.5836); font-family: Arial, sans-serif; font-size: 57.1px; white-space: pre;" x="733.878" y="623.674" dx="0 0 0 0 -3.266" dy="0 0 0 0 1.633" transform="matrix(4.782196044921875, 0, 0, 4.409383773803711, -2963.4255812678566, -2225.4504726149203)">ZEco</text>
  <text style="white-space: pre; fill: rgb(51, 51, 51); font-family: Arial, sans-serif; font-size: 57.1px;" x="1111.02" y="661.587" transform="matrix(1, 0, 0, 1, -2.842170943040401e-14, 5.684341886080802e-14)"> </text>
  <text style="white-space: pre; fill: rgb(51, 51, 51); font-family: Arial, sans-serif; font-size: 57.1px;" x="1080" y="542.404" transform="matrix(1, 0, 0, 1, -2.842170943040401e-14, 5.684341886080802e-14)"> </text>
  <text style="white-space: pre; fill: rgb(51, 51, 51); font-family: Arial, sans-serif; font-size: 57.1px;" x="944.49" y="606.077" transform="matrix(1, 0, 0, 1, -2.842170943040401e-14, 5.684341886080802e-14)"> </text>
  <text style="white-space: pre; fill: rgb(51, 51, 51); font-family: Arial, sans-serif; font-size: 57.1px;" x="433.469" y="514.648" transform="matrix(1, 0, 0, 1, -2.842170943040401e-14, 5.684341886080802e-14)"> </text>
</svg>